<svg xmlns="http://www.w3.org/2000/svg" width="760" height="190" viewBox="0 0 760 190"><rect x="8" y="8" width="744" height="174" fill="#05070B"/><rect x="0" y="0" width="744" height="174" fill="#101827" stroke="#FFFFFF" stroke-opacity="0.18" stroke-width="2"/><rect x="0" y="0" width="18" height="174" fill="#55E7FF"/><rect x="18" y="0" width="726" height="6" fill="#55E7FF" fill-opacity="0.55"/><rect x="640" y="128" width="92" height="34" fill="#55E7FF"/><text x="686" y="150" text-anchor="middle" font-family="Inter,Arial,sans-serif" font-weight="800" font-size="12" fill="#05070B">PRIVATE</text><g transform="translate(42,44) scale(1.0)" stroke="#55E7FF" fill="none" stroke-width="3"><rect x="18" y="18" width="44" height="44" rx="6"/><path d="M4 40h14M62 40h14M40 4v14M40 62v14"/><path d="M10 16l8-8M70 16l-8-8M10 64l8 8M70 64l-8 8"/></g><text x="135" y="35" font-family="Inter,Arial,sans-serif" font-weight="800" font-size="10" letter-spacing="2" fill="#55E7FF">ENGINEERING SIGNAL</text><text x="135" y="66" font-family="Inter,Arial,sans-serif" font-weight="800" font-size="22" fill="#F4F7FB">LUMA</text><text x="135" y="110" font-family="Inter,Arial,sans-serif" font-weight="600" font-size="12" fill="#9FB0C5">PRIVATE · TYPESCRIPT  ·  Private</text><text x="135" y="127" font-family="Inter,Arial,sans-serif" font-weight="600" font-size="12" fill="#9FB0C5">project · repository</text><circle cx="108" cy="150" r="5" fill="#55E7FF"/><path d="M44 150H92" stroke="#55E7FF" stroke-width="2"/></svg>